<mxfile host="app.diagrams.net" modified="2021-07-27T21:03:18.932Z" agent="5.0 (Windows NT 10.0; Win64; x64) AppleWebKit/537.36 (KHTML, like Gecko) Chrome/92.0.4515.107 Safari/537.36" etag="O_9pvFOkAlTohU_y0UkB" version="14.9.2" type="github">
  <diagram id="rEtT4XTaYV-RrsifmRvW" name="Page-1">
    <mxGraphModel dx="703" dy="413" grid="1" gridSize="10" guides="1" tooltips="1" connect="1" arrows="1" fold="1" page="1" pageScale="1" pageWidth="827" pageHeight="1169" math="0" shadow="0">
      <root>
        <mxCell id="0" />
        <mxCell id="1" parent="0" />
        <mxCell id="gUnCcbT_I3wscyAiOxzF-2" value="Aluno&lt;br&gt;" style="shape=umlActor;verticalLabelPosition=bottom;verticalAlign=top;html=1;outlineConnect=0;fontFamily=Helvetica;" vertex="1" parent="1">
          <mxGeometry x="224" y="600" width="30" height="60" as="geometry" />
        </mxCell>
        <mxCell id="gUnCcbT_I3wscyAiOxzF-6" value="" style="endArrow=none;html=1;exitX=1;exitY=0.5;exitDx=0;exitDy=0;" edge="1" parent="1" source="gUnCcbT_I3wscyAiOxzF-21">
          <mxGeometry width="50" height="50" relative="1" as="geometry">
            <mxPoint x="130" y="370" as="sourcePoint" />
            <mxPoint x="210" y="630" as="targetPoint" />
          </mxGeometry>
        </mxCell>
        <mxCell id="gUnCcbT_I3wscyAiOxzF-21" value="Exibir matérias que possuem monitoria" style="ellipse;whiteSpace=wrap;html=1;" vertex="1" parent="1">
          <mxGeometry x="40" y="590" width="120" height="80" as="geometry" />
        </mxCell>
        <mxCell id="gUnCcbT_I3wscyAiOxzF-28" style="edgeStyle=orthogonalEdgeStyle;rounded=0;orthogonalLoop=1;jettySize=auto;html=1;exitX=1;exitY=0.5;exitDx=0;exitDy=0;entryX=0;entryY=0.5;entryDx=0;entryDy=0;endArrow=none;endFill=0;" edge="1" parent="1" source="gUnCcbT_I3wscyAiOxzF-22" target="gUnCcbT_I3wscyAiOxzF-27">
          <mxGeometry relative="1" as="geometry" />
        </mxCell>
        <mxCell id="gUnCcbT_I3wscyAiOxzF-22" value="Exibir informações sobre a matéria" style="ellipse;whiteSpace=wrap;html=1;" vertex="1" parent="1">
          <mxGeometry x="320" y="590" width="120" height="80" as="geometry" />
        </mxCell>
        <mxCell id="gUnCcbT_I3wscyAiOxzF-23" value="" style="endArrow=none;html=1;entryX=0;entryY=0.5;entryDx=0;entryDy=0;" edge="1" parent="1" target="gUnCcbT_I3wscyAiOxzF-22">
          <mxGeometry width="50" height="50" relative="1" as="geometry">
            <mxPoint x="270" y="630" as="sourcePoint" />
            <mxPoint x="220" y="640" as="targetPoint" />
          </mxGeometry>
        </mxCell>
        <mxCell id="gUnCcbT_I3wscyAiOxzF-30" style="edgeStyle=orthogonalEdgeStyle;rounded=0;orthogonalLoop=1;jettySize=auto;html=1;exitX=1;exitY=0.5;exitDx=0;exitDy=0;entryX=0;entryY=0.5;entryDx=0;entryDy=0;endArrow=none;endFill=0;" edge="1" parent="1" source="gUnCcbT_I3wscyAiOxzF-27" target="gUnCcbT_I3wscyAiOxzF-29">
          <mxGeometry relative="1" as="geometry" />
        </mxCell>
        <mxCell id="gUnCcbT_I3wscyAiOxzF-27" value="Receber data para o agendamento" style="ellipse;whiteSpace=wrap;html=1;" vertex="1" parent="1">
          <mxGeometry x="480" y="590" width="120" height="80" as="geometry" />
        </mxCell>
        <mxCell id="gUnCcbT_I3wscyAiOxzF-29" value="Grava o agendamento" style="ellipse;whiteSpace=wrap;html=1;" vertex="1" parent="1">
          <mxGeometry x="640" y="590" width="120" height="80" as="geometry" />
        </mxCell>
      </root>
    </mxGraphModel>
  </diagram>
</mxfile>
